PathFileType	4	(X/Y/Z)	SUBJ32_0_static_RCNL2025.trc
DataRate	CameraRate	NumFrames	NumMarkers	Units	OrigDataRate	OrigDataStartFrame	OrigNumFrames
100	100	9	25	mm	100	15	114
Frame#	Time	R_Shoulder			L_Shoulder			C7			J_Notch			R_Elbow			L_Elbow			R_Wrist			L_Wrist			R_Asis			L_Asis			Sacral			Thoracic			Sternum			R_Thigh_Lateral			R_Knee_Lateral			R_Shank_Lateral			R_Ankle_Lateral			R_Heel			R_Toe			L_Thigh_Lateral			L_Knee_Lateral			L_Shank_Lateral			L_Ankle_Lateral			L_Heel			L_Toe		
		X1	Y1	Z1	X2	Y2	Z2	X3	Y3	Z3	X4	Y4	Z4	X5	Y5	Z5	X6	Y6	Z6	X7	Y7	Z7	X8	Y8	Z8	X9	Y9	Z9	X10	Y10	Z10	X11	Y11	Z11	X12	Y12	Z12	X13	Y13	Z13	X14	Y14	Z14	X15	Y15	Z15	X16	Y16	Z16	X17	Y17	Z17	X18	Y18	Z18	X19	Y19	Z19	X20	Y20	Z20	X21	Y21	Z21	X22	Y22	Z22	X23	Y23	Z23	X24	Y24	Z24	X25	Y25	Z25
15	0.14000000	-237.242538	1369.345703	-53.517178	-265.023773	1366.241577	-423.989655	-286.616577	1440.320312	-227.108368	-151.557953	1353.941284	-242.389526	-269.902740	1037.804565	54.916443	-301.572083	1051.540649	-528.501526	-204.380981	799.697723	74.735382	-233.945442	806.605194	-576.179901	-150.245483	912.957886	-122.667610	-157.666138	905.890625	-374.984344	-349.716492	954.458191	-238.935623	-362.282745	1205.310791	-231.647842	-66.944122	1130.189331	-246.428619	-268.914093	554.689270	-41.181343	-273.391968	456.030548	-84.053482	-302.823456	300.942047	-10.926217	-311.737793	68.638092	-114.558960	-357.465027	57.353924	-171.364548	-177.905914	49.940708	-132.007797	-265.436676	568.324341	-468.530273	-271.606293	473.631714	-423.885956	-310.244629	255.428848	-460.065582	-323.997406	62.219936	-379.425781	-364.457672	51.765491	-325.306610	-184.990707	40.636929	-380.017334
16	0.15000000	-237.353470	1369.404419	-53.565117	-265.219635	1366.267334	-424.011047	-286.825348	1440.221802	-227.194489	-151.680176	1354.041992	-242.412277	-269.897369	1037.879639	54.914124	-301.683136	1051.578247	-528.606079	-204.355698	799.781464	74.772449	-233.974648	806.717224	-576.310211	-150.216614	913.072449	-122.770012	-157.660309	905.866333	-374.967529	-349.719482	954.358093	-238.960632	-362.413025	1205.325684	-231.769501	-66.959335	1130.337280	-246.515045	-268.861725	554.660522	-41.211281	-273.393860	456.091705	-84.037636	-302.822662	300.925964	-10.934117	-311.705963	68.656052	-114.495682	-357.419403	57.314957	-171.306412	-177.913422	49.937927	-131.993057	-265.471527	568.308716	-468.529053	-271.541779	473.563263	-423.861298	-310.177002	255.515289	-460.051453	-323.996124	62.214638	-379.431274	-364.457794	51.759094	-325.283936	-184.989609	40.621002	-380.110504
17	0.16000000	-237.522812	1369.483643	-53.573009	-265.318329	1366.327515	-424.094971	-287.026764	1440.082031	-227.185532	-151.879059	1354.175781	-242.489517	-269.930298	1037.922241	54.941765	-301.762421	1051.639282	-528.781006	-204.272987	799.860260	74.830366	-233.995949	806.789673	-576.500092	-150.114044	913.073853	-122.716545	-157.658249	905.847839	-374.981079	-349.723114	954.307434	-239.087677	-362.509491	1205.312988	-231.700058	-66.937042	1130.483887	-246.481003	-268.828430	554.591736	-41.263344	-273.389404	456.094177	-84.046799	-302.758728	300.917053	-10.964407	-311.652740	68.560829	-114.494019	-357.399597	57.335999	-171.323120	-177.914825	49.906532	-131.983871	-265.427887	568.344055	-468.538818	-271.466736	473.584778	-423.817963	-310.127533	255.428009	-460.106720	-323.994812	62.246464	-379.423065	-364.459442	51.760246	-325.302704	-184.940201	40.642014	-380.054688
18	0.17000000	-237.616531	1369.564453	-53.633137	-265.471222	1366.339966	-424.192596	-287.258911	1440.006348	-227.229843	-152.115921	1354.265259	-242.570557	-270.083038	1038.166504	55.083672	-301.884674	1051.682495	-528.884460	-204.291435	799.900452	74.893293	-233.862511	806.904572	-576.789459	-150.027084	913.332581	-122.859100	-157.721542	905.877258	-374.920441	-349.820099	954.351807	-239.022110	-362.712830	1205.306519	-231.783813	-67.005394	1130.605469	-246.575882	-268.821198	554.649048	-41.257843	-273.358551	456.090546	-84.065590	-302.761261	300.928131	-10.960572	-311.615295	68.610146	-114.528320	-357.341644	57.334156	-171.359863	-177.905472	49.902527	-131.997559	-265.397461	568.270142	-468.552002	-271.522736	473.597137	-423.825012	-310.089386	255.399384	-460.141724	-323.994293	62.244411	-379.425415	-364.434174	51.707935	-325.351471	-184.929642	40.671585	-380.036560
19	0.18000000	-237.775620	1369.606812	-53.708088	-265.571167	1366.483154	-424.250061	-287.522430	1439.920532	-227.306946	-152.272476	1354.376831	-242.579391	-269.992584	1038.196777	54.996811	-301.938812	1051.793213	-528.988647	-204.264336	800.028503	74.918337	-233.895851	806.970978	-576.938354	-150.028610	913.447754	-122.895638	-157.643051	905.879944	-375.074860	-349.912201	954.336609	-239.036758	-362.760620	1205.202515	-231.889191	-66.981071	1130.713013	-246.638855	-268.828430	554.624939	-41.261089	-273.342377	456.020935	-84.077126	-302.720703	300.895630	-10.997714	-311.584381	68.589508	-114.530373	-357.336090	57.331856	-171.363190	-177.905167	49.942623	-132.014038	-265.414490	568.292175	-468.594116	-271.598969	473.585907	-423.819153	-310.102264	255.415405	-460.130341	-324.030731	62.215347	-379.398132	-364.472198	51.783913	-325.317078	-184.975845	40.676266	-380.081970
20	0.19000000	-237.908783	1369.680054	-53.745548	-265.653229	1366.505249	-424.304718	-287.760437	1439.867676	-227.347412	-152.397812	1354.524658	-242.721909	-270.137421	1038.291138	55.097454	-302.004303	1051.871338	-529.093567	-204.268044	800.126648	75.023560	-233.927208	807.044556	-577.090027	-150.044159	913.444824	-122.892517	-157.773605	905.906494	-375.042755	-350.053650	954.321472	-239.074219	-362.891785	1205.214111	-231.934525	-67.035690	1130.823120	-246.749451	-268.821350	554.606323	-41.262787	-273.356964	456.015411	-84.073486	-302.689911	300.911560	-11.036523	-311.628937	68.633850	-114.509239	-357.336426	57.269070	-171.371964	-177.906052	49.959248	-132.019684	-265.441376	568.249207	-468.566589	-271.573883	473.532013	-423.793365	-310.152130	255.408112	-460.118439	-324.031860	62.201653	-379.377686	-364.471375	51.775562	-325.304443	-184.932343	40.614979	-380.065308
21	0.20000000	-237.993042	1369.746460	-53.828674	-265.769958	1366.561035	-424.367523	-288.085327	1439.805298	-227.479279	-152.493210	1354.713013	-242.780502	-270.178833	1038.312500	55.116203	-302.010406	1051.917114	-529.247559	-204.211975	800.180786	74.964268	-233.980225	807.107147	-577.208038	-150.169983	913.451233	-122.861023	-157.759995	905.881714	-375.128998	-350.094147	954.278931	-239.191727	-363.050323	1205.201904	-231.922897	-67.062935	1130.980957	-246.701920	-268.837463	554.633118	-41.271950	-273.367065	456.043121	-84.067230	-302.696594	300.872040	-11.032642	-311.640076	68.632401	-114.515297	-357.334991	57.264339	-171.372757	-177.919586	49.905663	-132.021011	-265.397949	568.294250	-468.592529	-271.571625	473.542603	-423.799896	-310.164429	255.421860	-460.093872	-324.023376	62.206017	-379.384735	-364.449768	51.724125	-325.335388	-184.933746	40.622112	-380.062469
22	0.21000000	-238.187973	1369.786621	-53.885063	-265.892426	1366.596558	-424.492828	-288.319672	1439.759888	-227.529099	-152.699997	1354.824829	-242.830124	-270.185303	1038.410400	55.115227	-302.057404	1051.939087	-529.383301	-204.227272	800.242828	75.067919	-234.066750	807.155426	-577.417236	-150.222946	913.536133	-122.906998	-157.800949	905.956909	-375.021942	-350.088104	954.270447	-239.198151	-363.155243	1205.074463	-232.091644	-67.115692	1131.128418	-246.790726	-268.912262	554.630188	-41.302498	-273.364899	456.023560	-84.064949	-302.732117	300.876404	-11.002099	-311.651245	68.608109	-114.535583	-357.358398	57.312576	-171.330872	-177.908859	49.939335	-132.018585	-265.435791	568.299438	-468.622131	-271.500153	473.561249	-423.754578	-310.222687	255.393982	-460.192230	-324.049164	62.179890	-379.467041	-364.450409	51.773991	-325.312073	-184.977539	40.646255	-380.093567
23	0.22000000	-238.197113	1369.865234	-53.959255	-265.969574	1366.682861	-424.552094	-288.601410	1439.692139	-227.585159	-152.869644	1354.963867	-242.806854	-270.151367	1038.502930	55.096928	-302.106171	1052.067627	-529.462524	-204.298294	800.326935	75.106153	-234.079445	807.214417	-577.539703	-150.217545	913.545044	-122.913216	-157.856949	905.891418	-375.163910	-350.215302	954.325867	-239.243378	-363.284119	1205.099976	-232.123550	-67.121704	1131.297974	-246.916672	-268.945801	554.646851	-41.311077	-273.451355	456.050995	-84.107971	-302.790833	300.929352	-11.036591	-311.627838	68.637741	-114.523422	-357.385040	57.305038	-171.354416	-177.854340	49.995377	-132.039734	-265.473785	568.299072	-468.688141	-271.609955	473.550629	-423.855621	-310.236237	255.398071	-460.172333	-324.027466	62.226078	-379.485229	-364.453827	51.780518	-325.308563	-184.980301	40.647575	-380.094971
